<?xml version="1.0" encoding="iso-8859-1"?>
<!-- Generator: Adobe Illustrator 18.0.0, SVG Export Plug-In . SVG Version: 6.00 Build 0)  -->
<!DOCTYPE svg PUBLIC "-//W3C//DTD SVG 1.1//EN" "http://www.w3.org/Graphics/SVG/1.1/DTD/svg11.dtd">
<svg version="1.1" id="Capa_1" xmlns="http://www.w3.org/2000/svg" xmlns:xlink="http://www.w3.org/1999/xlink" x="0px" y="0px"
	 viewBox="0 0 255.222 255.222" style="enable-background:new 0 0 255.222 255.222;" xml:space="preserve">
<path d="M127.611,0C57.246,0,0,57.246,0,127.611s57.246,127.611,127.611,127.611c70.365,0,127.611-57.246,127.611-127.611
	S197.976,0,127.611,0z M231.883,80.061c3.637,7.945,6.391,16.375,8.138,25.163l-13.242-9.735L231.883,80.061z M223.302,64.609
	l-9.295,28.096l-38.841,12.618l-41.057-29.83V33.988l23.424-17.017C184.82,24.358,208.097,41.591,223.302,64.609z M151.158,159.311
	h-47.094l-14.553-44.79l38.101-27.681l38.1,27.681L151.158,159.311z M139.963,13.667l-12.351,8.973l-12.354-8.972
	c4.06-0.437,8.18-0.668,12.354-0.668C131.784,13,135.904,13.23,139.963,13.667z M97.685,16.972l23.425,17.012v41.511l-41.054,29.828
	L41.001,92.636l-9.21-27.832C46.993,41.69,70.323,24.381,97.685,16.972z M28.085,94.987l-12.706,9.342
	c1.735-8.377,4.388-16.422,7.847-24.025L28.085,94.987z M13.134,122.114l23.453-17.243l40.381,13.118l15.324,47.164L67.89,198.739
	l-29.835,0.307C22.385,179.441,13,154.603,13,127.611C13,125.768,13.048,123.936,13.134,122.114z M66.724,211.752l5.429,16.129
	c-7.996-4.44-15.408-9.807-22.089-15.957L66.724,211.752z M88.366,235.299l-9.805-29.131l24.6-33.857h48.901l24.415,33.611
	l-9.58,29.363c-12.259,4.487-25.492,6.938-39.286,6.938C113.832,242.222,100.614,239.777,88.366,235.299z M205.597,211.515
	c-6.824,6.347-14.418,11.873-22.628,16.422l5.364-16.439L205.597,211.515z M217.586,198.527l-30.434-0.03l-24.222-33.345
	l15.325-47.164l39.656-12.883l24.208,17.796c0.064,1.563,0.104,3.132,0.104,4.71C242.222,154.364,233.006,179.004,217.586,198.527z"
	/>
<g>
</g>
<g>
</g>
<g>
</g>
<g>
</g>
<g>
</g>
<g>
</g>
<g>
</g>
<g>
</g>
<g>
</g>
<g>
</g>
<g>
</g>
<g>
</g>
<g>
</g>
<g>
</g>
<g>
</g>
</svg>
