<?xml version="1.0" encoding="iso-8859-1"?>
<!-- Generator: Adobe Illustrator 19.0.0, SVG Export Plug-In . SVG Version: 6.00 Build 0)  -->
<svg version="1.1" id="Capa_1" xmlns="http://www.w3.org/2000/svg" xmlns:xlink="http://www.w3.org/1999/xlink" x="0px" y="0px"
	 viewBox="0 0 511 511" style="enable-background:new 0 0 511 511;" xml:space="preserve">
<path d="M487.5,80h-464C10.542,80,0,90.542,0,103.5v304C0,420.458,10.542,431,23.5,431h464c12.958,0,23.5-10.542,23.5-23.5v-304
	C511,90.542,500.458,80,487.5,80z M455.5,192c-8.547,0-15.5,6.953-15.5,15.5v96c0,8.547,6.953,15.5,15.5,15.5H496v25h-64.5
	c-9.098,0-16.5-7.402-16.5-16.5v-144c0-9.098,7.402-16.5,16.5-16.5H496v25H455.5z M496,207v97h-40.5c-0.257,0-0.5-0.243-0.5-0.5v-96
	c0-0.257,0.243-0.5,0.5-0.5H496z M248,311.487c-27.619-3.682-49-27.377-49-55.987s21.381-52.305,49-55.987V311.487z M263,199.513
	c27.619,3.682,49,27.377,49,55.987s-21.381,52.305-49,55.987V199.513z M15,207h40.5c0.257,0,0.5,0.243,0.5,0.5v96
	c0,0.257-0.243,0.5-0.5,0.5H15V207z M15,319h40.5c8.547,0,15.5-6.953,15.5-15.5v-96c0-8.547-6.953-15.5-15.5-15.5H15v-25h64.5
	c9.098,0,16.5,7.402,16.5,16.5v144c0,9.098-7.402,16.5-16.5,16.5H15V319z M15,407.5V359h64.5c17.369,0,31.5-14.131,31.5-31.5v-144
	c0-17.369-14.131-31.5-31.5-31.5H15v-48.5c0-4.687,3.813-8.5,8.5-8.5H248v89.395c-35.913,3.761-64,34.212-64,71.105
	s28.087,67.344,64,71.105V416H23.5C18.813,416,15,412.187,15,407.5z M487.5,416H263v-89.395c35.913-3.761,64-34.212,64-71.105
	s-28.087-67.344-64-71.105V95h224.5c4.687,0,8.5,3.813,8.5,8.5V152h-64.5c-17.369,0-31.5,14.131-31.5,31.5v144
	c0,17.369,14.131,31.5,31.5,31.5H496v48.5C496,412.187,492.187,416,487.5,416z"/>
<g>
</g>
<g>
</g>
<g>
</g>
<g>
</g>
<g>
</g>
<g>
</g>
<g>
</g>
<g>
</g>
<g>
</g>
<g>
</g>
<g>
</g>
<g>
</g>
<g>
</g>
<g>
</g>
<g>
</g>
</svg>
