<?xml version="1.0" encoding="iso-8859-1"?>
<!-- Generator: Adobe Illustrator 18.1.1, SVG Export Plug-In . SVG Version: 6.00 Build 0)  -->
<svg version="1.1" id="Capa_1" xmlns="http://www.w3.org/2000/svg" xmlns:xlink="http://www.w3.org/1999/xlink" x="0px" y="0px"
	 viewBox="0 0 710.173 710.173" style="enable-background:new 0 0 710.173 710.173;" xml:space="preserve">
<g>
	<g>
		<circle style="fill:#010002;" cx="367.026" cy="40.06" r="40.06"/>
		<path style="fill:#010002;" d="M216.286,53.358l97.63,100.273l-0.165,276.949c0,12.637,10.242,22.88,22.879,22.88
			s22.797-10.242,22.797-22.88l-0.083-185.018h10.325v185.266l0.165,0.165c0.165,12.472,10.242,22.467,22.632,22.467
			c12.472,0,22.714-10.16,22.714-22.797l-0.165-276.619l98.126-100.686c0-0.083,0-0.083,0.083-0.165
			c6.608-6.608,6.608-17.263,0-23.871c-6.608-6.525-17.263-6.525-23.871,0c0,0-0.083,0.165-0.165,0.165L426.083,93.17H303.261
			l-63.187-63.683l-0.083-0.083c-6.608-6.608-17.345-6.608-23.953,0c-6.608,6.608-6.608,17.345,0,23.871
			C216.203,53.275,216.203,53.275,216.286,53.358z"/>
		<circle style="fill:#010002;" cx="154.998" cy="135.708" r="39.977"/>
		<path style="fill:#010002;" d="M193.158,188.735h-80.202c-57.405,0.991-55.423,43.116-55.423,43.116v98.374h0.083
			c0,0.248-0.083,0.496-0.083,0.826c0,9.251,7.599,16.85,17.015,16.85c9.251,0,16.767-7.682,16.767-16.85c0-0.33,0-0.496,0-0.826
			l0,0v-91.022h10.572l-0.083,286.613c0,12.637,10.159,22.879,22.797,22.879c12.555,0,22.797-10.159,22.797-22.879l-0.165-184.853
			h10.242v185.101l0.165,0.165c0.165,12.39,10.242,22.466,22.714,22.466c12.472,0,22.714-10.159,22.714-22.714l-0.083-287.191
			h10.985v91.435l0,0c0,0.083,0,0.083,0,0.165c0,9.334,7.516,16.85,16.932,16.85c9.251,0,16.85-7.434,16.85-16.85
			c0-0.083,0-0.083,0-0.165v-98.374C244.038,187.992,193.158,188.735,193.158,188.735z"/>
		<circle style="fill:#010002;" cx="559.974" cy="160.156" r="39.977"/>
		<path style="fill:#010002;" d="M598.134,213.101h-80.202c-57.405,1.074-55.423,43.198-55.423,43.198v98.374l0,0
			c0,0.33,0,0.496,0,0.743c0,9.334,7.516,16.85,16.932,16.85c9.333,0,16.85-7.516,16.85-16.85c0-0.248-0.083-0.496-0.083-0.743
			h0.083v-90.94h10.572l-0.165,286.613c0,12.555,10.242,22.88,22.797,22.88s22.797-10.242,22.797-22.88V365.411h10.159v185.101
			l0.165,0.165c0.165,12.39,10.242,22.466,22.714,22.466s22.632-10.159,22.632-22.714l-0.083-287.191h10.985v91.435l0,0
			c0,0.083,0,0.083,0,0.165c0,9.251,7.516,16.85,16.85,16.85s16.932-7.599,16.932-16.85c0-0.083,0-0.083,0-0.165V256.3
			C649.014,212.441,598.134,213.101,598.134,213.101z"/>
		<path style="fill:#010002;" d="M283.85,710.173h152.64V461.885H283.85V710.173z M357.775,562.984h8.59v74.338h-9.664v-64.922
			h-0.248l-12.968,6.938l-1.9-7.682L357.775,562.984z"/>
		<path style="fill:#010002;" d="M481.341,710.173h152.64V586.029h-152.64V710.173z M540.233,677.712
			c2.891,1.9,9.499,4.708,16.519,4.708c12.968,0,16.932-8.26,16.85-14.455c-0.083-10.407-9.499-14.868-19.163-14.868h-5.617v-7.516
			h5.617c7.269,0,16.52-3.717,16.52-12.555c0-5.947-3.717-11.233-13.05-11.233c-5.864,0-11.646,2.561-14.785,4.956l-2.643-7.269
			c3.882-2.891,11.398-5.782,19.493-5.782c14.702,0,21.228,8.673,21.228,17.758c0,7.599-4.625,14.207-13.794,17.511v0.248
			c9.168,1.817,16.602,8.673,16.602,19.163c0,11.811-9.251,22.301-27.092,22.301c-8.342,0-15.694-2.643-19.328-5.038
			L540.233,677.712z"/>
		<path style="fill:#010002;" d="M76.283,710.173h152.64v-152.64H76.283V710.173z M128.732,669.37l7.929-7.682
			c18.997-18.089,27.588-27.67,27.67-38.821c0-7.516-3.717-14.537-14.785-14.537c-6.773,0-12.39,3.469-15.776,6.277l-3.221-7.021
			c5.121-4.378,12.472-7.599,21.062-7.599c16.024,0,22.797,11.068,22.797,21.641c0,13.794-9.912,24.862-25.605,39.895l-5.947,5.451
			v0.248h33.369v8.342h-47.411v-6.195H128.732z"/>
	</g>
</g>
<g>
</g>
<g>
</g>
<g>
</g>
<g>
</g>
<g>
</g>
<g>
</g>
<g>
</g>
<g>
</g>
<g>
</g>
<g>
</g>
<g>
</g>
<g>
</g>
<g>
</g>
<g>
</g>
<g>
</g>
</svg>
